<?xml version="1.0" standalone="no"?>
<!DOCTYPE svg PUBLIC "-//W3C//DTD SVG 20010904//EN"
 "http://www.w3.org/TR/2001/REC-SVG-20010904/DTD/svg10.dtd">
<svg version="1.0" xmlns="http://www.w3.org/2000/svg"
 width="922.000000pt" height="922.000000pt" viewBox="0 0 922.000000 922.000000"
 preserveAspectRatio="xMidYMid meet">
<metadata>
Created by potrace 1.14, written by Peter Selinger 2001-2017
</metadata>
<g transform="translate(0.000000,922.000000) scale(0.100000,-0.100000)"
fill="#000000" stroke="none">
<path d="M4390 9204 c-242 -29 -399 -116 -508 -278 -101 -151 -120 -248 -128
-641 -3 -154 -10 -307 -15 -340 -13 -73 -55 -166 -100 -222 -70 -87 -215 -174
-339 -204 -81 -19 -212 -14 -292 11 -101 31 -186 95 -400 302 -218 211 -254
241 -354 291 -104 52 -176 71 -279 71 -178 1 -315 -58 -495 -212 -376 -322
-513 -625 -413 -915 49 -141 81 -183 318 -426 298 -305 334 -362 343 -546 13
-283 -151 -512 -424 -590 -47 -14 -125 -19 -389 -25 -289 -6 -340 -10 -408
-28 -236 -64 -393 -223 -459 -467 -19 -72 -22 -106 -22 -350 -1 -311 8 -372
76 -515 71 -149 208 -258 383 -305 38 -10 138 -19 270 -25 469 -22 543 -32
662 -90 253 -125 381 -477 264 -727 -48 -101 -77 -137 -308 -368 -207 -207
-222 -225 -267 -312 -102 -200 -114 -386 -35 -548 90 -183 464 -553 654 -645
158 -78 321 -74 501 11 99 47 167 102 386 316 278 271 329 303 513 311 294 12
544 -174 601 -449 11 -55 14 -129 12 -313 l-3 -241 38 -120 c98 -305 178 -421
351 -505 244 -119 525 -132 839 -39 289 86 422 224 473 489 11 55 14 145 13
345 -1 148 2 288 6 310 37 202 133 350 295 454 36 23 64 44 63 47 -1 3 -53 46
-115 97 -62 50 -156 132 -208 182 -52 50 -106 98 -121 107 -81 51 -202 62
-364 34 -309 -53 -640 -48 -940 14 -681 140 -1286 574 -1644 1180 -204 345
-311 695 -342 1115 -30 417 75 935 268 1318 319 635 892 1097 1588 1283 480
128 1072 115 1496 -32 752 -261 1364 -892 1593 -1644 79 -261 115 -619 86
-870 -31 -279 -34 -342 -17 -444 29 -170 97 -297 224 -419 65 -62 173 -154
201 -171 8 -5 39 19 91 71 90 90 173 143 286 180 78 26 88 27 410 34 187 4
348 11 372 18 203 54 361 176 440 339 60 126 77 231 77 497 0 250 -11 343 -58
463 -68 172 -221 306 -416 363 -68 20 -107 22 -415 29 -373 8 -406 13 -518 73
-137 73 -247 217 -288 377 -16 62 -13 194 5 263 38 140 109 237 370 505 182
187 197 206 240 293 151 306 75 569 -258 892 -300 292 -573 382 -840 279 -118
-46 -180 -95 -396 -313 -287 -289 -359 -332 -555 -333 -87 -1 -125 4 -180 21
-152 48 -284 155 -345 279 -66 134 -71 173 -79 549 -7 340 -7 340 -36 425 -73
213 -241 368 -452 416 -66 15 -496 28 -583 18z"/>
<path d="M4425 6485 c-49 -8 -132 -25 -184 -38 l-94 -22 95 -105 c52 -58 220
-226 372 -374 297 -289 375 -380 450 -530 70 -139 89 -223 89 -391 0 -123 -3
-150 -26 -228 -76 -248 -259 -472 -505 -616 -236 -138 -546 -153 -797 -37
-185 86 -266 154 -630 538 -159 167 -307 323 -330 347 l-43 44 -40 -23 c-39
-22 -40 -24 -51 -99 -47 -324 -31 -625 46 -890 178 -617 772 -1177 1393 -1314
333 -74 629 -58 1000 53 167 50 240 53 319 13 43 -21 168 -140 630 -603 821
-822 1167 -1160 1235 -1205 155 -101 331 -131 488 -82 114 36 197 88 292 183
129 127 194 259 203 409 7 105 -14 191 -74 309 -46 90 -50 94 -532 577 -267
267 -673 670 -902 895 -275 271 -422 422 -435 449 -30 64 -25 149 18 280 75
228 103 431 95 685 -9 281 -59 484 -181 734 -211 432 -606 787 -1071 961 -180
67 -291 86 -530 90 -153 3 -235 0 -300 -10z m3394 -4648 c208 -76 251 -377 78
-533 -64 -57 -161 -89 -241 -80 -75 10 -163 55 -213 108 -69 75 -78 100 -78
208 0 112 19 165 84 228 98 95 233 120 370 69z"/>
</g>
</svg>
